<?xml version="1.0" encoding="UTF-8"?>
<svg width="4000px" height="1056px" viewBox="0 0 4000 1056" version="1.1" xmlns="http://www.w3.org/2000/svg" xmlns:xlink="http://www.w3.org/1999/xlink">
  <title>Interactor.js</title>
  <rect id="Rectangle" fill="#F0DB4F" x="0" y="0" width="4000" height="1055"></rect>
  <path d="M516.512786,465.415837 C484.814266,465.415837 457.250336,441.278694 457.250336,406.797061 C457.250336,373.005061 484.814266,348.867918 516.512786,348.867918 C548.211306,348.867918 575.086137,373.005061 575.086137,406.797061 C575.086137,441.278694 548.211306,465.415837 516.512786,465.415837 Z M469.654105,808.163265 L469.654105,514.379755 L562.682369,514.379755 L562.682369,808.163265 L469.654105,808.163265 Z M617.637954,808.163265 L617.637954,514.379755 L710.666218,514.379755 L708.598923,562.654041 C726.515478,527.482776 760.97039,508.173061 801.627187,508.173061 C865.713324,508.173061 911.882907,555.068082 911.882907,638.513633 L911.882907,808.163265 L818.854643,808.163265 L818.854643,644.720327 C818.854643,611.617959 803.005384,592.997878 769.928668,592.997878 C732.717362,592.997878 710.666218,613.686857 710.666218,650.92702 L710.666218,808.163265 L617.637954,808.163265 Z M1088.11978,815.749224 C1028.85734,815.749224 986.133244,786.09502 986.133244,697.822041 L986.133244,591.618612 L942.720054,591.618612 L942.720054,514.379755 L986.133244,514.379755 L986.133244,361.281306 L1078.47241,361.281306 L1078.47241,514.379755 L1153.58412,514.379755 L1153.58412,591.618612 L1078.47241,591.618612 L1078.47241,700.580571 C1078.47241,730.234776 1088.11978,736.441469 1102.59085,736.441469 C1117.75101,736.441469 1128.77658,728.165878 1134.97847,724.028082 L1170.12248,788.853551 C1155.65141,800.577306 1130.84388,815.749224 1088.11978,815.749224 Z M1277.44953,689.546449 C1286.40781,719.890286 1311.21534,737.131102 1353.25034,737.131102 C1387.01615,737.131102 1412.51279,724.028082 1426.98385,713.683592 L1480.04441,770.923102 C1451.79139,795.749878 1415.95828,814.369959 1354.62853,814.369959 C1249.8856,814.369959 1182.35397,750.923755 1182.35397,660.581878 C1182.35397,571.619265 1253.33109,508.173061 1344.29206,508.173061 C1449.72409,508.173061 1506.91925,586.791184 1500.02826,689.546449 L1277.44953,689.546449 Z M1276.07133,635.755102 L1406.3109,635.755102 C1402.17631,603.342367 1381.50336,584.032653 1344.98116,584.032653 C1308.45895,584.032653 1283.65141,600.583837 1276.07133,635.755102 Z M1541.89098,808.163265 L1541.89098,514.379755 L1634.91925,514.379755 L1633.54105,567.481469 C1654.9031,519.207184 1689.35801,508.173061 1719.67833,508.173061 C1738.97308,508.173061 1753.44415,513.690122 1765.15882,519.896816 L1735.52759,604.721633 C1723.81292,599.204571 1712.78735,595.756408 1699.69448,595.756408 C1657.65949,595.756408 1634.91925,615.066122 1634.91925,677.822694 L1634.91925,808.163265 L1541.89098,808.163265 Z M1949.66487,633.686204 C1948.28668,599.894204 1931.74832,584.722286 1900.7389,584.722286 C1865.59489,584.722286 1846.98923,599.894204 1833.89637,611.617959 L1782.214,556.447347 C1809.77793,529.551673 1840.78735,508.173061 1909.69717,508.173061 C1984.80888,508.173061 2042.00404,548.861388 2042.00404,641.272163 L2042.00404,808.163265 L1949.66487,808.163265 L1951.73217,767.474939 C1929.68102,801.266939 1904.18439,814.369959 1864.90579,814.369959 C1811.15612,814.369959 1761.54105,790.232816 1761.54105,721.959184 C1761.54105,659.202612 1809.08883,633.686204 1881.44415,633.686204 L1949.66487,633.686204 Z M1949.66487,688.856816 L1886.26783,688.856816 C1862.83849,688.856816 1852.50202,699.201306 1852.50202,715.75249 C1852.50202,732.303673 1866.28398,741.958531 1892.46972,741.958531 C1930.37012,741.958531 1949.66487,725.407347 1949.66487,700.580571 L1949.66487,688.856816 Z M2241.67026,814.369959 C2150.02019,814.369959 2081.11036,750.923755 2081.11036,660.581878 C2081.11036,571.619265 2150.02019,508.173061 2241.67026,508.173061 C2300.24361,508.173061 2335.38762,529.551673 2365.01884,566.791837 L2298.86541,620.583184 C2287.83984,602.652735 2265.0996,589.549714 2241.67026,589.549714 C2199.63526,589.549714 2176.20592,619.203918 2176.20592,660.581878 C2176.20592,703.339102 2199.63526,733.682939 2241.67026,733.682939 C2271.30148,733.682939 2287.15074,719.890286 2300.93271,706.097633 L2363.64065,761.268245 C2334.69852,793.68098 2300.24361,814.369959 2241.67026,814.369959 Z M2528.85195,815.749224 C2469.5895,815.749224 2426.86541,786.09502 2426.86541,697.822041 L2426.86541,591.618612 L2383.45222,591.618612 L2383.45222,514.379755 L2426.86541,514.379755 L2426.86541,361.281306 L2519.20458,361.281306 L2519.20458,514.379755 L2594.31629,514.379755 L2594.31629,591.618612 L2519.20458,591.618612 L2519.20458,700.580571 C2519.20458,730.234776 2528.85195,736.441469 2543.32301,736.441469 C2558.48318,736.441469 2569.50875,728.165878 2575.71063,724.028082 L2610.85464,788.853551 C2596.38358,800.577306 2571.57604,815.749224 2528.85195,815.749224 Z M2785.02423,814.369959 C2694.06326,814.369959 2623.08614,750.923755 2623.08614,661.961143 C2623.08614,572.308898 2694.06326,508.173061 2785.02423,508.173061 C2875.9852,508.173061 2946.27322,572.308898 2946.27322,661.961143 C2946.27322,750.923755 2875.9852,814.369959 2785.02423,814.369959 Z M2785.02423,735.751837 C2826.37012,735.751837 2851.17766,705.408 2851.17766,661.961143 C2851.17766,617.824653 2826.37012,588.170449 2785.02423,588.170449 C2743.67833,588.170449 2718.1817,617.824653 2718.1817,661.961143 C2718.1817,705.408 2743.67833,735.751837 2785.02423,735.751837 Z M2987.44684,808.163265 L2987.44684,514.379755 L3080.4751,514.379755 L3079.0969,567.481469 C3100.45895,519.207184 3134.91386,508.173061 3165.23419,508.173061 C3184.52894,508.173061 3199,513.690122 3210.71467,519.896816 L3181.08345,604.721633 C3169.36878,599.204571 3158.3432,595.756408 3145.25034,595.756408 C3103.21534,595.756408 3080.4751,615.066122 3080.4751,677.822694 L3080.4751,808.163265 L2987.44684,808.163265 Z M3233.97174,812.301061 C3202.27322,812.301061 3175.39838,788.163918 3175.39838,753.682286 C3175.39838,719.890286 3202.27322,695.753143 3233.97174,695.753143 C3264.98116,695.753143 3291.85599,719.890286 3291.85599,753.682286 C3291.85599,788.163918 3264.98116,812.301061 3233.97174,812.301061 Z M3427.78062,465.415837 C3396.0821,465.415837 3368.51817,441.278694 3368.51817,406.797061 C3368.51817,373.005061 3396.0821,348.867918 3427.78062,348.867918 C3459.47914,348.867918 3486.35397,373.005061 3486.35397,406.797061 C3486.35397,441.278694 3459.47914,465.415837 3427.78062,465.415837 Z M3368.51817,961.261714 C3334.06326,961.261714 3304.43203,943.331265 3290.65007,926.090449 L3336.81965,870.919837 C3344.39973,877.816163 3351.97981,881.953959 3359.55989,881.953959 C3374.03096,881.953959 3380.92194,873.678367 3380.92194,858.506449 L3380.92194,514.379755 L3473.9502,514.379755 L3473.9502,855.058286 C3473.9502,922.642286 3437.42799,961.261714 3368.51817,961.261714 Z M3640.5397,814.369959 C3572.31898,814.369959 3532.35128,788.853551 3506.85464,758.509714 L3561.29341,710.235429 C3581.27725,729.545143 3606.77389,741.268898 3634.33782,741.268898 C3664.65814,741.268898 3674.30552,735.751837 3674.30552,723.338449 C3674.30552,707.476898 3655.69987,707.476898 3608.15209,695.06351 C3568.18439,684.71902 3523.393,662.650776 3523.393,601.273469 C3523.393,535.068735 3574.38627,508.173061 3637.09421,508.173061 C3685.33109,508.173061 3719.786,524.034612 3743.90444,548.861388 L3694.28937,601.963102 C3680.5074,590.239347 3659.83445,579.894857 3637.78331,579.894857 C3616.42127,579.894857 3606.08479,585.411918 3606.08479,597.135673 C3606.08479,613.686857 3624.69044,615.755755 3664.65814,624.72098 C3707.38223,634.375837 3761.1319,654.375184 3761.1319,716.442122 C3761.1319,770.233469 3732.87887,814.369959 3640.5397,814.369959 Z" fill="#000000" fill-rule="nonzero"></path>
</svg>
